<mxfile host="65bd71144e" modified="2020-12-09T10:05:40.592Z" agent="5.0 (X11; Linux x86_64) AppleWebKit/537.36 (KHTML, like Gecko) Code/1.50.1 Chrome/83.0.4103.122 Electron/9.2.1 Safari/537.36" etag="geDQVAIJCTNMy20AZz-0" version="13.10.0" type="embed">
    <diagram id="zVeNAyzQGfL6WKKovrSG" name="Page-1">
        <mxGraphModel dx="564" dy="439" grid="1" gridSize="10" guides="1" tooltips="1" connect="1" arrows="1" fold="1" page="1" pageScale="1" pageWidth="827" pageHeight="1169" math="0" shadow="0">
            <root>
                <mxCell id="0"/>
                <mxCell id="1" parent="0"/>
                <mxCell id="nuzd9s900WlZkQOmoOAo-7" value="" style="rounded=1;whiteSpace=wrap;html=1;" parent="1" vertex="1">
                    <mxGeometry x="40" width="780" height="510" as="geometry"/>
                </mxCell>
                <mxCell id="nuzd9s900WlZkQOmoOAo-2" value="&lt;h1&gt;Kraken Host&lt;br&gt;&lt;/h1&gt;&lt;p&gt;Docker service should be running in local machine or in another accesible system. In this service, Kraken will store the images and create containers dynamically&lt;/p&gt;&lt;p&gt;&lt;br&gt;&lt;/p&gt;&lt;p&gt;&lt;br&gt;&lt;/p&gt;" style="text;html=1;strokeColor=none;fillColor=none;spacing=5;spacingTop=-20;whiteSpace=wrap;overflow=hidden;rounded=0;" parent="1" vertex="1">
                    <mxGeometry x="100" y="10" width="450" height="100" as="geometry"/>
                </mxCell>
                <mxCell id="nuzd9s900WlZkQOmoOAo-49" style="edgeStyle=orthogonalEdgeStyle;rounded=0;orthogonalLoop=1;jettySize=auto;html=1;entryX=1;entryY=0;entryDx=0;entryDy=0;" parent="1" source="nuzd9s900WlZkQOmoOAo-34" target="nuzd9s900WlZkQOmoOAo-41" edge="1">
                    <mxGeometry relative="1" as="geometry">
                        <Array as="points">
                            <mxPoint x="570" y="271"/>
                            <mxPoint x="570" y="90"/>
                            <mxPoint x="691" y="90"/>
                        </Array>
                    </mxGeometry>
                </mxCell>
                <mxCell id="nuzd9s900WlZkQOmoOAo-34" value="" style="aspect=fixed;html=1;points=[];align=center;image;fontSize=12;image=img/lib/mscae/Docker.svg;" parent="1" vertex="1">
                    <mxGeometry x="340" y="210" width="147.61" height="121.04" as="geometry"/>
                </mxCell>
                <mxCell id="nuzd9s900WlZkQOmoOAo-35" value="" style="shape=image;html=1;verticalAlign=top;verticalLabelPosition=bottom;labelBackgroundColor=#ffffff;imageAspect=0;aspect=fixed;image=https://cdn1.iconfinder.com/data/icons/logos-and-brands-3/512/97_Docker_logo_logos-128.png" parent="1" vertex="1">
                    <mxGeometry x="623" y="160" width="68" height="68" as="geometry"/>
                </mxCell>
                <mxCell id="nuzd9s900WlZkQOmoOAo-41" value="" style="shape=image;html=1;verticalAlign=top;verticalLabelPosition=bottom;labelBackgroundColor=#ffffff;imageAspect=0;aspect=fixed;image=https://cdn1.iconfinder.com/data/icons/logos-and-brands-3/512/97_Docker_logo_logos-128.png" parent="1" vertex="1">
                    <mxGeometry x="623" y="110" width="68" height="68" as="geometry"/>
                </mxCell>
                <mxCell id="nuzd9s900WlZkQOmoOAo-42" value="" style="shape=image;html=1;verticalAlign=top;verticalLabelPosition=bottom;labelBackgroundColor=#ffffff;imageAspect=0;aspect=fixed;image=https://cdn1.iconfinder.com/data/icons/logos-and-brands-3/512/97_Docker_logo_logos-128.png" parent="1" vertex="1">
                    <mxGeometry x="691" y="110" width="68" height="68" as="geometry"/>
                </mxCell>
                <mxCell id="nuzd9s900WlZkQOmoOAo-43" value="" style="shape=image;html=1;verticalAlign=top;verticalLabelPosition=bottom;labelBackgroundColor=#ffffff;imageAspect=0;aspect=fixed;image=https://cdn1.iconfinder.com/data/icons/logos-and-brands-3/512/97_Docker_logo_logos-128.png" parent="1" vertex="1">
                    <mxGeometry x="691" y="160" width="68" height="68" as="geometry"/>
                </mxCell>
                <mxCell id="nuzd9s900WlZkQOmoOAo-46" value="" style="shape=image;html=1;verticalAlign=top;verticalLabelPosition=bottom;labelBackgroundColor=#ffffff;imageAspect=0;aspect=fixed;image=https://cdn1.iconfinder.com/data/icons/logos-and-brands-3/512/97_Docker_logo_logos-128.png" parent="1" vertex="1">
                    <mxGeometry x="622" y="210" width="68" height="68" as="geometry"/>
                </mxCell>
                <mxCell id="nuzd9s900WlZkQOmoOAo-47" value="" style="shape=image;html=1;verticalAlign=top;verticalLabelPosition=bottom;labelBackgroundColor=#ffffff;imageAspect=0;aspect=fixed;image=https://cdn1.iconfinder.com/data/icons/logos-and-brands-3/512/97_Docker_logo_logos-128.png" parent="1" vertex="1">
                    <mxGeometry x="690" y="210" width="68" height="68" as="geometry"/>
                </mxCell>
                <mxCell id="nuzd9s900WlZkQOmoOAo-48" value="" style="shape=image;html=1;verticalAlign=top;verticalLabelPosition=bottom;labelBackgroundColor=#ffffff;imageAspect=0;aspect=fixed;image=https://cdn0.iconfinder.com/data/icons/social-media-2127/48/social_media_social_media_logo_docker-128.png" parent="1" vertex="1">
                    <mxGeometry x="140" y="272" width="80" height="80" as="geometry"/>
                </mxCell>
                <mxCell id="nuzd9s900WlZkQOmoOAo-50" value="" style="shape=image;html=1;verticalAlign=top;verticalLabelPosition=bottom;labelBackgroundColor=#ffffff;imageAspect=0;aspect=fixed;image=https://cdn0.iconfinder.com/data/icons/social-media-2127/48/social_media_social_media_logo_docker-128.png" parent="1" vertex="1">
                    <mxGeometry x="215" y="270" width="80" height="80" as="geometry"/>
                </mxCell>
                <mxCell id="nuzd9s900WlZkQOmoOAo-51" value="" style="shape=image;html=1;verticalAlign=top;verticalLabelPosition=bottom;labelBackgroundColor=#ffffff;imageAspect=0;aspect=fixed;image=https://cdn0.iconfinder.com/data/icons/social-media-2127/48/social_media_social_media_logo_docker-128.png" parent="1" vertex="1">
                    <mxGeometry x="140" y="322" width="80" height="80" as="geometry"/>
                </mxCell>
                <mxCell id="nuzd9s900WlZkQOmoOAo-52" value="" style="shape=image;html=1;verticalAlign=top;verticalLabelPosition=bottom;labelBackgroundColor=#ffffff;imageAspect=0;aspect=fixed;image=https://cdn0.iconfinder.com/data/icons/social-media-2127/48/social_media_social_media_logo_docker-128.png" parent="1" vertex="1">
                    <mxGeometry x="209" y="322" width="80" height="80" as="geometry"/>
                </mxCell>
                <mxCell id="nuzd9s900WlZkQOmoOAo-53" value="" style="shape=image;html=1;verticalAlign=top;verticalLabelPosition=bottom;labelBackgroundColor=#ffffff;imageAspect=0;aspect=fixed;image=https://cdn0.iconfinder.com/data/icons/social-media-2127/48/social_media_social_media_logo_docker-128.png" parent="1" vertex="1">
                    <mxGeometry x="140" y="372" width="80" height="80" as="geometry"/>
                </mxCell>
                <mxCell id="nuzd9s900WlZkQOmoOAo-54" value="" style="shape=image;html=1;verticalAlign=top;verticalLabelPosition=bottom;labelBackgroundColor=#ffffff;imageAspect=0;aspect=fixed;image=https://cdn0.iconfinder.com/data/icons/social-media-2127/48/social_media_social_media_logo_docker-128.png" parent="1" vertex="1">
                    <mxGeometry x="209" y="372" width="80" height="80" as="geometry"/>
                </mxCell>
                <mxCell id="nuzd9s900WlZkQOmoOAo-62" value="&lt;b&gt;0.&amp;nbsp; Store the KrakenRDI images (pull from DockerHub or get them from GitHub)&amp;nbsp;&lt;/b&gt;" style="shape=callout;whiteSpace=wrap;html=1;perimeter=calloutPerimeter;" parent="1" vertex="1">
                    <mxGeometry x="390" y="140" width="160" height="97" as="geometry"/>
                </mxCell>
                <mxCell id="nuzd9s900WlZkQOmoOAo-65" value="&lt;b&gt;1. &lt;/b&gt;Using the KrakenRDI Images, create single or custom containers. Every container will include and configure the tools selected." style="shape=callout;whiteSpace=wrap;html=1;perimeter=calloutPerimeter;position2=1;" parent="1" vertex="1">
                    <mxGeometry x="155" y="138" width="195" height="142" as="geometry"/>
                </mxCell>
                <mxCell id="nuzd9s900WlZkQOmoOAo-67" value="" style="endArrow=classic;html=1;exitX=0;exitY=0.661;exitDx=0;exitDy=0;exitPerimeter=0;entryX=1;entryY=0;entryDx=0;entryDy=0;" parent="1" source="nuzd9s900WlZkQOmoOAo-34" target="nuzd9s900WlZkQOmoOAo-54" edge="1">
                    <mxGeometry width="50" height="50" relative="1" as="geometry">
                        <mxPoint x="370" y="380" as="sourcePoint"/>
                        <mxPoint x="420" y="330" as="targetPoint"/>
                        <Array as="points">
                            <mxPoint x="289" y="290"/>
                        </Array>
                    </mxGeometry>
                </mxCell>
                <mxCell id="nuzd9s900WlZkQOmoOAo-68" value="&lt;b&gt;git clone https://github.com/Adastra-thw/KrakenRdi&lt;/b&gt;" style="text;html=1;strokeColor=none;fillColor=none;align=center;verticalAlign=middle;whiteSpace=wrap;rounded=0;" parent="1" vertex="1">
                    <mxGeometry x="100" y="110" width="360" height="20" as="geometry"/>
                </mxCell>
                <mxCell id="nuzd9s900WlZkQOmoOAo-69" value="" style="shape=image;html=1;verticalAlign=top;verticalLabelPosition=bottom;labelBackgroundColor=#ffffff;imageAspect=0;aspect=fixed;image=https://cdn4.iconfinder.com/data/icons/logos-brands-5/24/flask-128.png" parent="1" vertex="1">
                    <mxGeometry x="470" y="430" width="134" height="134" as="geometry"/>
                </mxCell>
                <mxCell id="nuzd9s900WlZkQOmoOAo-70" value="" style="shape=image;html=1;verticalAlign=top;verticalLabelPosition=bottom;labelBackgroundColor=#ffffff;imageAspect=0;aspect=fixed;image=https://cdn4.iconfinder.com/data/icons/scripting-and-programming-languages/512/660277-Python_logo-128.png" parent="1" vertex="1">
                    <mxGeometry x="530" y="402" width="128" height="128" as="geometry"/>
                </mxCell>
                <mxCell id="nuzd9s900WlZkQOmoOAo-71" value="&lt;b&gt;3. &lt;/b&gt;Flask API allows to create, destroy and configure images and containers. The clients just needs to invoke the appropiate endpoint in the Rest API " style="shape=callout;whiteSpace=wrap;html=1;perimeter=calloutPerimeter;position2=0.11;" parent="1" vertex="1">
                    <mxGeometry x="640" y="300" width="170" height="130" as="geometry"/>
                </mxCell>
                <mxCell id="nuzd9s900WlZkQOmoOAo-74" value="" style="shape=image;html=1;verticalAlign=top;verticalLabelPosition=bottom;labelBackgroundColor=#ffffff;imageAspect=0;aspect=fixed;image=https://cdn0.iconfinder.com/data/icons/kameleon-free-pack-rounded/110/Hacker-128.png" parent="1" vertex="1">
                    <mxGeometry x="703" y="720" width="128" height="128" as="geometry"/>
                </mxCell>
                <mxCell id="nuzd9s900WlZkQOmoOAo-76" value="&amp;nbsp; &amp;nbsp; &amp;nbsp; &amp;nbsp; &amp;nbsp; &amp;nbsp; &amp;nbsp;&lt;b&gt;4. &lt;/b&gt;Rest API exposed in the interface and port selected in startup." style="html=1;whiteSpace=wrap;container=1;recursiveResize=0;collapsible=0;" parent="1" vertex="1">
                    <mxGeometry x="590" y="490" width="330" height="70" as="geometry"/>
                </mxCell>
                <mxCell id="nuzd9s900WlZkQOmoOAo-77" value="" style="triangle;html=1;whiteSpace=wrap;" parent="nuzd9s900WlZkQOmoOAo-76" vertex="1">
                    <mxGeometry x="20" y="20" width="20" height="30" as="geometry"/>
                </mxCell>
                <mxCell id="nuzd9s900WlZkQOmoOAo-82" value="&lt;b&gt;5. &lt;/b&gt;Manage the platform using the Rest API. Just invoke the endpoints available. " style="shape=callout;whiteSpace=wrap;html=1;perimeter=calloutPerimeter;" parent="1" vertex="1">
                    <mxGeometry x="700" y="590" width="200" height="120" as="geometry"/>
                </mxCell>
                <mxCell id="nuzd9s900WlZkQOmoOAo-87" value="" style="pointerEvents=1;shadow=0;dashed=0;html=1;strokeColor=none;fillColor=#DF8C42;labelPosition=center;verticalLabelPosition=bottom;verticalAlign=top;align=center;outlineConnect=0;shape=mxgraph.veeam2.restful_api;" parent="1" vertex="1">
                    <mxGeometry x="504" y="620" width="64" height="60" as="geometry"/>
                </mxCell>
                <mxCell id="nuzd9s900WlZkQOmoOAo-93" value="" style="pointerEvents=1;shadow=0;dashed=0;html=1;strokeColor=none;fillColor=#DF8C42;labelPosition=center;verticalLabelPosition=bottom;verticalAlign=top;align=center;outlineConnect=0;shape=mxgraph.veeam2.restful_api;" parent="1" vertex="1">
                    <mxGeometry x="573" y="620" width="64" height="60" as="geometry"/>
                </mxCell>
                <mxCell id="nuzd9s900WlZkQOmoOAo-94" value="" style="pointerEvents=1;shadow=0;dashed=0;html=1;strokeColor=none;fillColor=#DF8C42;labelPosition=center;verticalLabelPosition=bottom;verticalAlign=top;align=center;outlineConnect=0;shape=mxgraph.veeam2.restful_api;" parent="1" vertex="1">
                    <mxGeometry x="434.5" y="620" width="64" height="60" as="geometry"/>
                </mxCell>
                <mxCell id="nuzd9s900WlZkQOmoOAo-95" value="" style="endArrow=classic;html=1;exitX=0;exitY=0.5;exitDx=0;exitDy=0;" parent="1" target="nuzd9s900WlZkQOmoOAo-93" edge="1">
                    <mxGeometry width="50" height="50" relative="1" as="geometry">
                        <mxPoint x="723" y="784" as="sourcePoint"/>
                        <mxPoint x="599.1194029850747" y="680" as="targetPoint"/>
                        <Array as="points">
                            <mxPoint x="605" y="784"/>
                        </Array>
                    </mxGeometry>
                </mxCell>
                <mxCell id="nuzd9s900WlZkQOmoOAo-96" value="" style="endArrow=classic;html=1;exitX=0;exitY=0.5;exitDx=0;exitDy=0;" parent="1" source="nuzd9s900WlZkQOmoOAo-74" target="nuzd9s900WlZkQOmoOAo-87" edge="1">
                    <mxGeometry width="50" height="50" relative="1" as="geometry">
                        <mxPoint x="370" y="760" as="sourcePoint"/>
                        <mxPoint x="520" y="690" as="targetPoint"/>
                        <Array as="points">
                            <mxPoint x="537" y="784"/>
                        </Array>
                    </mxGeometry>
                </mxCell>
                <mxCell id="nuzd9s900WlZkQOmoOAo-97" value="" style="endArrow=classic;html=1;" parent="1" edge="1">
                    <mxGeometry width="50" height="50" relative="1" as="geometry">
                        <mxPoint x="700" y="784" as="sourcePoint"/>
                        <mxPoint x="465.91044776119406" y="680" as="targetPoint"/>
                        <Array as="points">
                            <mxPoint x="466" y="784"/>
                        </Array>
                    </mxGeometry>
                </mxCell>
                <mxCell id="nuzd9s900WlZkQOmoOAo-98" value="" style="endArrow=classic;html=1;entryX=0.5;entryY=1;entryDx=0;entryDy=0;" parent="1" source="nuzd9s900WlZkQOmoOAo-94" target="nuzd9s900WlZkQOmoOAo-69" edge="1">
                    <mxGeometry width="50" height="50" relative="1" as="geometry">
                        <mxPoint x="370" y="760" as="sourcePoint"/>
                        <mxPoint x="420" y="710" as="targetPoint"/>
                        <Array as="points">
                            <mxPoint x="467" y="564"/>
                        </Array>
                    </mxGeometry>
                </mxCell>
                <mxCell id="nuzd9s900WlZkQOmoOAo-99" value="" style="endArrow=classic;html=1;entryX=0.5;entryY=1;entryDx=0;entryDy=0;" parent="1" source="nuzd9s900WlZkQOmoOAo-87" target="nuzd9s900WlZkQOmoOAo-69" edge="1">
                    <mxGeometry width="50" height="50" relative="1" as="geometry">
                        <mxPoint x="370" y="760" as="sourcePoint"/>
                        <mxPoint x="420" y="710" as="targetPoint"/>
                    </mxGeometry>
                </mxCell>
                <mxCell id="nuzd9s900WlZkQOmoOAo-100" value="" style="endArrow=classic;html=1;entryX=0.5;entryY=1;entryDx=0;entryDy=0;" parent="1" source="nuzd9s900WlZkQOmoOAo-93" target="nuzd9s900WlZkQOmoOAo-69" edge="1">
                    <mxGeometry width="50" height="50" relative="1" as="geometry">
                        <mxPoint x="370" y="760" as="sourcePoint"/>
                        <mxPoint x="420" y="710" as="targetPoint"/>
                        <Array as="points">
                            <mxPoint x="605" y="564"/>
                        </Array>
                    </mxGeometry>
                </mxCell>
                <mxCell id="nuzd9s900WlZkQOmoOAo-101" value="" style="shape=image;html=1;verticalAlign=top;verticalLabelPosition=bottom;labelBackgroundColor=#ffffff;imageAspect=0;aspect=fixed;image=https://cdn4.iconfinder.com/data/icons/stick-figures-in-motion/100/stickfigure_8-128.png" parent="1" vertex="1">
                    <mxGeometry x="82" y="732" width="58" height="58" as="geometry"/>
                </mxCell>
                <mxCell id="nuzd9s900WlZkQOmoOAo-102" value="" style="shape=image;html=1;verticalAlign=top;verticalLabelPosition=bottom;labelBackgroundColor=#ffffff;imageAspect=0;aspect=fixed;image=https://cdn4.iconfinder.com/data/icons/stick-figures-in-motion/100/stickfigure_18-128.png" parent="1" vertex="1">
                    <mxGeometry x="189" y="784" width="59" height="59" as="geometry"/>
                </mxCell>
                <mxCell id="nuzd9s900WlZkQOmoOAo-106" value="" style="shape=image;html=1;verticalAlign=top;verticalLabelPosition=bottom;labelBackgroundColor=#ffffff;imageAspect=0;aspect=fixed;image=https://cdn2.iconfinder.com/data/icons/people-80/96/Picture8-128.png" parent="1" vertex="1">
                    <mxGeometry x="140" y="724" width="58" height="58" as="geometry"/>
                </mxCell>
                <mxCell id="nuzd9s900WlZkQOmoOAo-107" value="" style="shape=image;html=1;verticalAlign=top;verticalLabelPosition=bottom;labelBackgroundColor=#ffffff;imageAspect=0;aspect=fixed;image=https://cdn4.iconfinder.com/data/icons/stick-figures-in-motion/100/stickfigure_25-128.png" parent="1" vertex="1">
                    <mxGeometry x="240" y="714" width="67" height="67" as="geometry"/>
                </mxCell>
                <mxCell id="nuzd9s900WlZkQOmoOAo-108" value="" style="shape=image;html=1;verticalAlign=top;verticalLabelPosition=bottom;labelBackgroundColor=#ffffff;imageAspect=0;aspect=fixed;image=https://cdn2.iconfinder.com/data/icons/army-glyph-1/512/high_alert_military_army_person-128.png" parent="1" vertex="1">
                    <mxGeometry x="185" y="718" width="63" height="63" as="geometry"/>
                </mxCell>
                <mxCell id="nuzd9s900WlZkQOmoOAo-109" value="" style="shape=image;html=1;verticalAlign=top;verticalLabelPosition=bottom;labelBackgroundColor=#ffffff;imageAspect=0;aspect=fixed;image=https://cdn4.iconfinder.com/data/icons/stick-figures-in-motion/100/stickfigure_24-128.png" parent="1" vertex="1">
                    <mxGeometry x="132.5" y="775" width="73" height="73" as="geometry"/>
                </mxCell>
                <mxCell id="nuzd9s900WlZkQOmoOAo-110" value="" style="shape=image;html=1;verticalAlign=top;verticalLabelPosition=bottom;labelBackgroundColor=#ffffff;imageAspect=0;aspect=fixed;image=https://cdn4.iconfinder.com/data/icons/stick-figures-in-motion/100/throwing_a_ball-128.png" parent="1" vertex="1">
                    <mxGeometry x="245" y="793" width="50" height="50" as="geometry"/>
                </mxCell>
                <mxCell id="nuzd9s900WlZkQOmoOAo-113" value="" style="shape=image;html=1;verticalAlign=top;verticalLabelPosition=bottom;labelBackgroundColor=#ffffff;imageAspect=0;aspect=fixed;image=https://cdn2.iconfinder.com/data/icons/new-year-s-hand-drawn-basic/64/dancer_3-128.png" parent="1" vertex="1">
                    <mxGeometry x="88" y="788" width="55" height="55" as="geometry"/>
                </mxCell>
                <mxCell id="nuzd9s900WlZkQOmoOAo-114" value="" style="shape=image;html=1;verticalAlign=top;verticalLabelPosition=bottom;labelBackgroundColor=#ffffff;imageAspect=0;aspect=fixed;image=https://cdn0.iconfinder.com/data/icons/kameleon-free-pack-rounded/110/Hacker-128.png" parent="1" vertex="1">
                    <mxGeometry x="172" y="848" width="48" height="48" as="geometry"/>
                </mxCell>
                <mxCell id="nuzd9s900WlZkQOmoOAo-115" value="&lt;b&gt;6. &lt;/b&gt;After create the containers, you and/or your team can connect to the containers using the IP address of the host via SSH." style="shape=callout;whiteSpace=wrap;html=1;perimeter=calloutPerimeter;" parent="1" vertex="1">
                    <mxGeometry x="260" y="564" width="150" height="132" as="geometry"/>
                </mxCell>
                <mxCell id="nuzd9s900WlZkQOmoOAo-117" value="" style="shape=image;html=1;verticalAlign=top;verticalLabelPosition=bottom;labelBackgroundColor=#ffffff;imageAspect=0;aspect=fixed;image=https://cdn3.iconfinder.com/data/icons/pirate-outline-4/340/monster_sea_ocean_octopus_kraken_tentacle_nature_underwater-128.png" parent="1" vertex="1">
                    <mxGeometry x="366.5" y="384" width="68" height="68" as="geometry"/>
                </mxCell>
                <mxCell id="nuzd9s900WlZkQOmoOAo-118" value="" style="endArrow=classic;html=1;entryX=0.5;entryY=0;entryDx=0;entryDy=0;exitX=0.41;exitY=1;exitDx=0;exitDy=0;exitPerimeter=0;" parent="1" source="nuzd9s900WlZkQOmoOAo-34" target="nuzd9s900WlZkQOmoOAo-117" edge="1">
                    <mxGeometry width="50" height="50" relative="1" as="geometry">
                        <mxPoint x="330" y="300" as="sourcePoint"/>
                        <mxPoint x="380" y="250" as="targetPoint"/>
                    </mxGeometry>
                </mxCell>
                <mxCell id="nuzd9s900WlZkQOmoOAo-119" value="" style="shape=image;html=1;verticalAlign=top;verticalLabelPosition=bottom;labelBackgroundColor=#ffffff;imageAspect=0;aspect=fixed;image=https://cdn3.iconfinder.com/data/icons/humano2/128x128/apps/guake.png" parent="1" vertex="1">
                    <mxGeometry x="169" y="500" width="79" height="79" as="geometry"/>
                </mxCell>
                <mxCell id="nuzd9s900WlZkQOmoOAo-122" value="" style="endArrow=classic;startArrow=classic;html=1;entryX=0;entryY=1;entryDx=0;entryDy=0;exitX=0.5;exitY=0;exitDx=0;exitDy=0;" parent="1" source="nuzd9s900WlZkQOmoOAo-119" target="nuzd9s900WlZkQOmoOAo-54" edge="1">
                    <mxGeometry width="50" height="50" relative="1" as="geometry">
                        <mxPoint x="330" y="620" as="sourcePoint"/>
                        <mxPoint x="380" y="570" as="targetPoint"/>
                    </mxGeometry>
                </mxCell>
                <mxCell id="nuzd9s900WlZkQOmoOAo-123" value="" style="endArrow=classic;startArrow=classic;html=1;entryX=0.5;entryY=1;entryDx=0;entryDy=0;exitX=1;exitY=0.5;exitDx=0;exitDy=0;" parent="1" source="nuzd9s900WlZkQOmoOAo-119" target="nuzd9s900WlZkQOmoOAo-117" edge="1">
                    <mxGeometry width="50" height="50" relative="1" as="geometry">
                        <mxPoint x="330" y="620" as="sourcePoint"/>
                        <mxPoint x="380" y="570" as="targetPoint"/>
                        <Array as="points">
                            <mxPoint x="401" y="540"/>
                        </Array>
                    </mxGeometry>
                </mxCell>
                <mxCell id="nuzd9s900WlZkQOmoOAo-125" value="" style="endArrow=classic;startArrow=classic;html=1;" parent="1" edge="1">
                    <mxGeometry width="50" height="50" relative="1" as="geometry">
                        <mxPoint x="206" y="710" as="sourcePoint"/>
                        <mxPoint x="205.5" y="579" as="targetPoint"/>
                    </mxGeometry>
                </mxCell>
                <mxCell id="nuzd9s900WlZkQOmoOAo-126" value="&lt;b&gt;2. &lt;/b&gt;Full featured container." style="shape=callout;whiteSpace=wrap;html=1;perimeter=calloutPerimeter;position2=0.17;" parent="1" vertex="1">
                    <mxGeometry x="430" y="340" width="120" height="80" as="geometry"/>
                </mxCell>
            </root>
        </mxGraphModel>
    </diagram>
</mxfile>